<svg width="24" height="24" viewBox="0 0 24 24" fill="none" xmlns="http://www.w3.org/2000/svg">
<path d="M11.2768 10.808C10.9661 10.9393 10.717 11.1348 10.5321 11.3973C10.3473 11.6598 10.2536 11.9759 10.2536 12.3482C10.2536 12.825 10.4545 13.192 10.8536 13.4518C11.2313 13.6955 11.6277 13.7571 12.0429 13.6339C12.5223 13.4946 12.8464 13.1545 13.0179 12.6134C13.0982 12.3643 13.1384 12.0857 13.1384 11.775V10.4304C12.8009 10.4411 12.4848 10.4732 12.1875 10.5295C11.8902 10.5857 11.5875 10.6795 11.2768 10.808ZM12 0C5.37321 0 0 5.37321 0 12C0 18.6268 5.37321 24 12 24C18.6268 24 24 18.6268 24 12C24 5.37321 18.6268 0 12 0ZM12.9589 7.03661C12.7661 6.74464 12.4205 6.59732 11.9223 6.59732C11.8875 6.59732 11.842 6.6 11.7804 6.60536C11.7214 6.61071 11.6036 6.64554 11.4348 6.70446C11.2653 6.7651 11.1042 6.847 10.9554 6.94821C10.808 7.05 10.6473 7.21607 10.4732 7.44107C10.3018 7.66875 10.1652 7.93393 10.0634 8.23929L7.54554 8.01429C7.54554 7.68214 7.60982 7.35268 7.73304 7.02589C7.85893 6.69911 8.04911 6.38571 8.30625 6.08839C8.56339 5.78839 8.87143 5.52589 9.23036 5.30089C9.58929 5.07321 10.0232 4.89375 10.5268 4.75714C11.033 4.62054 11.5741 4.55357 12.158 4.55357C12.7286 4.55357 13.2455 4.62321 13.7063 4.75982C14.167 4.89911 14.5393 5.06786 14.8152 5.27143C15.081 5.4632 15.3151 5.69549 15.5089 5.95982C15.6937 6.21696 15.8223 6.45536 15.8946 6.675C15.967 6.89464 16.0018 7.09554 16.0018 7.28571V12.1741C16.0018 12.3455 16.0393 12.5223 16.117 12.7045C16.1946 12.8866 16.2857 13.0473 16.3902 13.1866C16.4946 13.3259 16.6018 13.4518 16.7116 13.5696C16.8214 13.6848 16.9152 13.7759 16.9955 13.8348L17.1054 13.9259L15.1634 15.7848C14.9357 15.5786 14.7107 15.3723 14.4884 15.158C14.2661 14.9438 14.1 14.783 13.9929 14.6732L13.8295 14.5071C13.7652 14.4455 13.6955 14.3545 13.6152 14.2339C13.3982 14.5607 13.1196 14.8446 12.7821 15.0857C12.442 15.3268 12.0777 15.5036 11.692 15.6134C11.3036 15.7232 10.9045 15.7875 10.4946 15.8036C10.0848 15.8196 9.69107 15.7634 9.31875 15.6295C8.94643 15.4955 8.60893 15.3161 8.31161 15.0857C8.01429 14.8554 7.77857 14.5446 7.60179 14.1482C7.425 13.7518 7.33661 13.3045 7.33661 12.7982C7.33661 12.3321 7.41696 11.9063 7.575 11.5205C7.73571 11.1321 7.93929 10.8107 8.19107 10.5536C8.44286 10.2964 8.74554 10.0661 9.10179 9.86518C9.45804 9.66429 9.80893 9.50625 10.1518 9.39107C10.4946 9.27857 10.8643 9.18214 11.2634 9.10446C11.6625 9.02679 12.0027 8.97589 12.2866 8.95179C12.5705 8.92768 12.8545 8.90893 13.1384 8.89821V7.84286C13.1384 7.48125 13.0768 7.21339 12.9589 7.03661ZM17.7938 17.2045C17.7188 17.2929 17.5929 17.4134 17.4161 17.5661C17.2393 17.7188 16.9661 17.9062 16.5991 18.1313C16.2321 18.3563 15.8277 18.5598 15.3938 18.7446C14.9571 18.9295 14.4214 19.0902 13.7839 19.2268C13.1491 19.3634 12.4929 19.4304 11.8205 19.4304C11.1402 19.4304 10.4625 19.3446 9.78214 19.1732C9.10179 19.0018 8.50714 18.7902 7.99286 18.5384C7.48125 18.2866 6.98571 17.9973 6.51696 17.6759C6.04554 17.3518 5.66786 17.0625 5.38125 16.8054C5.09732 16.5482 4.85625 16.3045 4.66339 16.0795C4.61786 16.0286 4.58839 15.983 4.57768 15.9429C4.56696 15.9027 4.56964 15.8679 4.58571 15.8438C4.60179 15.8196 4.62589 15.8009 4.65536 15.7848C4.68736 15.7706 4.72254 15.7651 4.75735 15.7689C4.79215 15.7726 4.82535 15.7855 4.85357 15.8062C5.94911 16.4545 6.80625 16.9125 7.42232 17.183C9.64286 18.158 11.9223 18.4071 14.2607 17.9304C15.3455 17.708 16.4598 17.3357 17.6063 16.8107C17.692 16.7786 17.767 16.7705 17.8286 16.7866C17.8902 16.8027 17.9223 16.8509 17.9223 16.9312C17.9223 17.0063 17.8795 17.1 17.7938 17.2045ZM19.3982 16.4277C19.35 16.725 19.267 17.0063 19.1545 17.2795C18.9616 17.7375 18.7179 18.083 18.4286 18.308C18.3321 18.3857 18.2571 18.4098 18.2063 18.383C18.1554 18.3563 18.1554 18.2893 18.2063 18.1848C18.3268 17.9357 18.4527 17.6009 18.5866 17.175C18.7205 16.7518 18.7393 16.4786 18.6429 16.358C18.6134 16.3179 18.5705 16.2884 18.5089 16.2616C18.45 16.2375 18.3723 16.2214 18.2786 16.2107C18.1848 16.2 18.0991 16.1946 18.0268 16.1893C17.9518 16.1839 17.8527 16.1839 17.7268 16.1893C17.6009 16.1946 17.5125 16.2 17.4563 16.2054C17.3037 16.2202 17.151 16.2336 16.9982 16.2455C16.9634 16.2509 16.9259 16.2563 16.8884 16.2589C16.8482 16.2616 16.8161 16.2643 16.7946 16.267L16.7223 16.275C16.6955 16.2777 16.6768 16.2804 16.6634 16.2804H16.5777L16.5509 16.275L16.5348 16.2616L16.5214 16.2375C16.4866 16.1491 16.6205 16.0393 16.9232 15.9054C17.2259 15.7714 17.5205 15.6884 17.8045 15.6562C18.067 15.6161 18.375 15.6161 18.7286 15.6482C19.0821 15.6804 19.2991 15.7473 19.3795 15.8464C19.4411 15.9402 19.4464 16.133 19.3982 16.4277Z" fill="#2D437C"/>
</svg>
