<svg width="22" height="22" viewBox="0 0 22 22" fill="none" xmlns="http://www.w3.org/2000/svg">
<g clip-path="url(#clip0_411_47)">
<path d="M21.9945 5.61379C22.0016 4.93824 21.9277 4.26427 21.7745 3.60629C21.4839 2.40545 20.801 1.48879 19.7762 0.81687C19.2534 0.481214 18.6681 0.254836 18.0556 0.15137C17.5818 0.0697823 17.1026 0.0238202 16.6219 0.0138698C16.5852 0.0111198 16.5458 0.00470312 16.5083 0.00195312H5.48717C5.34783 0.0111198 5.20942 0.0175365 5.07008 0.0257865C4.38533 0.0652031 3.70425 0.138536 3.05983 0.392453C1.83517 0.878286 0.9515 1.72345 0.433583 2.94079C0.257583 3.35145 0.165917 3.7887 0.100833 4.23145C0.0501643 4.59002 0.0195611 4.95114 0.00916667 5.31312C0.00916667 5.34245 0.00275 5.36995 0 5.39837V16.6028C0.00916667 16.7311 0.0155833 16.8622 0.02475 16.9915C0.0705833 17.7385 0.165917 18.4801 0.480333 19.1667C1.07617 20.4684 2.0735 21.3236 3.44483 21.7343C3.82983 21.8507 4.2295 21.9057 4.63008 21.9433C5.13883 21.9919 5.64758 21.9983 6.15817 21.9983H16.269C16.7502 21.998 17.2308 21.9674 17.7082 21.9066C18.4617 21.8095 19.1712 21.5858 19.8119 21.1641C20.5719 20.6729 21.1711 19.9695 21.5352 19.141C21.7058 18.756 21.8038 18.3435 21.8744 17.9274C21.978 17.3086 22.0009 16.6825 22 16.0574C21.9982 12.574 22 9.09529 21.9972 5.61379H21.9945ZM16.1068 9.27129V14.5073C16.1068 14.8895 16.0536 15.2654 15.8831 15.6128C15.6173 16.1536 15.1864 16.4946 14.6108 16.6578C14.2899 16.7495 13.9636 16.8017 13.6299 16.8164C12.7591 16.8576 12.0047 16.2664 11.8488 15.4084C11.7834 15.0379 11.841 14.6562 12.0128 14.3215C12.1846 13.9869 12.4612 13.7176 12.8003 13.5549C13.0964 13.4082 13.4145 13.3257 13.7335 13.2579C14.08 13.1827 14.4283 13.1176 14.773 13.0379C15.0242 12.9801 15.1919 12.827 15.2405 12.5649C15.2529 12.5067 15.2591 12.4474 15.2588 12.388C15.2588 10.7242 15.2588 9.06045 15.257 7.39854C15.2564 7.34122 15.2484 7.28422 15.2332 7.22895C15.1965 7.09145 15.0957 7.0062 14.9545 7.01445C14.8078 7.02362 14.663 7.04654 14.5191 7.07495C13.8224 7.21245 13.1258 7.3527 12.4291 7.49295L10.2978 7.92379L9.03833 8.17862C9.02367 8.18137 9.009 8.18779 8.99433 8.19054C8.74042 8.26112 8.64875 8.37662 8.63683 8.6397C8.635 8.6782 8.63683 8.71854 8.63683 8.75887C8.635 11.144 8.63683 13.5292 8.63408 15.9135C8.63408 16.2985 8.591 16.6798 8.437 17.0382C8.18217 17.6249 7.73117 17.9915 7.1225 18.1685C6.80167 18.2601 6.47167 18.3151 6.13708 18.3261C5.25708 18.3591 4.52833 17.7761 4.37708 16.9108C4.24875 16.1665 4.58792 15.3662 5.43492 15.0087C5.76217 14.8712 6.10408 14.796 6.45058 14.7245C6.71367 14.6695 6.97767 14.6182 7.23892 14.5623C7.59 14.4862 7.77333 14.2662 7.78892 13.9078V13.7703C7.78892 11.057 7.78892 8.34179 7.79075 5.62845C7.79075 5.5157 7.80267 5.39929 7.82925 5.28929C7.89342 5.02804 8.0795 4.87862 8.32975 4.81445C8.5635 4.75395 8.80183 4.71179 9.03925 4.6632C9.71117 4.5257 10.3831 4.39187 11.0559 4.2562L13.1368 3.83454C13.7509 3.7117 14.3651 3.58704 14.9792 3.46512C15.1809 3.4257 15.3844 3.38445 15.587 3.36795C15.8712 3.34504 16.0664 3.52379 16.0948 3.80979C16.1022 3.8767 16.1058 3.94545 16.1058 4.0142C16.1077 5.76504 16.1077 7.5177 16.1058 9.26854L16.1068 9.27129Z" fill="#2D437C"/>
</g>
<defs>
<clipPath id="clip0_411_47">
<rect width="22" height="22" fill="white"/>
</clipPath>
</defs>
</svg>
