<svg width="22" height="10" viewBox="0 0 22 10" fill="none" xmlns="http://www.w3.org/2000/svg">
<path d="M10.56 1.51547V9.64547H19.32C21.17 9.51547 22 8.37547 22 6.97547C22 5.49547 20.88 4.30547 19.38 4.30547C19 4.30547 18.68 4.38547 18.35 4.52547C18.11 2.18547 16.12 0.355469 13.67 0.355469C12.5 0.355469 11.39 0.795469 10.56 1.51547ZM9.68 2.53547C9.38 2.35547 9.06 2.21547 8.71 2.14547V9.64547H10.1V1.98547C9.95 2.14547 9.81 2.34547 9.68 2.53547ZM7.33 1.99547V9.64547H8.25V2.02547C8.06 1.99547 7.87 1.98547 7.67 1.98547C7.55 1.98547 7.44 1.98547 7.33 1.99547ZM5.5 2.64547V9.64547H6.41V2.18547C6.08 2.29547 5.77 2.45547 5.5 2.64547ZM3.83 5.14547C3.77 5.14547 3.71 5.08547 3.64 5.05547V9.64547H4.56V3.50547C4.19 3.98547 3.94 4.55547 3.83 5.14547ZM1.79 4.86547V9.55547C2 9.61547 2.24 9.64547 2.5 9.64547H2.72V4.78547C2.64 4.77547 2.56 4.76547 2.5 4.76547C2.24 4.76547 2 4.80547 1.79 4.86547ZM0 7.20547C0 7.95547 0.34 8.61547 0.87 9.06547V5.35547C0.34 5.79547 0 6.46547 0 7.20547Z" fill="#2D437C"/>
</svg>
