<svg width="24" height="21" viewBox="0 0 24 21" fill="none" xmlns="http://www.w3.org/2000/svg">
<path d="M24 2.47059C23.1166 2.90294 22.1644 3.18706 21.1778 3.32294C22.1874 2.66824 22.9675 1.63059 23.3346 0.382941C22.3824 1.00059 21.327 1.43294 20.2141 1.68C19.3078 0.617647 18.0344 0 16.5889 0C13.8929 0 11.6902 2.37176 11.6902 5.29941C11.6902 5.71941 11.7361 6.12706 11.8164 6.51C7.73232 6.28765 4.0956 4.17529 1.67495 0.975882C1.25048 1.75412 1.00956 2.66824 1.00956 3.63176C1.00956 5.47235 1.86998 7.10294 3.20077 8.02941C2.38623 8.02941 1.62906 7.78235 0.963671 7.41176V7.44882C0.963671 10.0182 2.66157 12.1676 4.91013 12.6494C4.18822 12.8621 3.43032 12.8917 2.69599 12.7359C3.00758 13.7889 3.61782 14.7104 4.44094 15.3707C5.26405 16.031 6.25864 16.3969 7.2849 16.4171C5.54527 17.9 3.38891 18.7015 1.17017 18.69C0.780115 18.69 0.390057 18.6653 0 18.6159C2.17973 20.1229 4.77247 21 7.54876 21C16.5889 21 21.5564 12.9212 21.5564 5.91706C21.5564 5.68235 21.5564 5.46 21.5449 5.22529C22.5086 4.48412 23.3346 3.54529 24 2.47059Z" fill="#28438F"/>
</svg>
